# xmcd
#
# Track frame offsets:
#	150
#	10621
#	21150
#	34220
#	46964
#	61292
#	72950
#	90870
#	101854
#	112056
#	122692
#	129539
#	138856
#	146878
#	159669
#	173527
#
# Disc length: 2475 seconds
# Revision: 0
# Processed by: cddbd v1.5.2PL0 Copyright (c) Steve Scherf et al.
# Submitted via: dBpowerAMP V12.0
#
DISCID=d709a910
DTITLE=Various Artist - True Bluegrass Banjo
DYEAR=2012
DGENRE=Country
TTITLE0=Bill Emerson - Sweet Dixie
TTITLE1=Ralph Stanley - Clinch Mountain Backstep
TTITLE2=Jimmy Arnold - Little Rock Getaway
TTITLE3=J.D. Crowe - Bear Tracks
TTITLE4=Sammy Shelor - Daddy's Dream
TTITLE5=Sonny Osborne - Banjo Boy Chimes
TTITLE6=Alan Munde - Cotton Patch Rag
TTITLE7=Bill Emerson - Theme Time
TTITLE8=Ralph Stanley - Hard Times
TTITLE9=Terry Baucom - Knee Deep in the Bluegrass
TTITLE10=Don Reno - Lonesome Road Blues
TTITLE11=J.D. Crowe - Black Jack
TTITLE12=Ralph Stanley - Old Time Pickin'
TTITLE13=Jimmy Arnold - M Street Rag
TTITLE14=Ned Luberecki - Nedscape Navigator
TTITLE15=Bill Emerson - Home Street Home
EXTD=
EXTT0=
EXTT1=
EXTT2=
EXTT3=
EXTT4=
EXTT5=
EXTT6=
EXTT7=
EXTT8=
EXTT9=
EXTT10=
EXTT11=
EXTT12=
EXTT13=
EXTT14=
EXTT15=
PLAYORDER=
